<svg width="941" height="139" viewBox="0 0 941 139" fill="none" xmlns="http://www.w3.org/2000/svg">
<path d="M6.85453e-07 136H16.2V71.6C16.2 55.4 30.2 43.8 42.8 43.8C53.4 43.8 60.6 51.4 60.6 64.2V136H76.8V71.6C76.8 55.4 88.8 43.8 102.2 43.8C112.6 43.8 121.2 51.4 121.2 64.2V136H137.4V63.4C137.4 42 124.4 30.2 106 30.2C93.4 30.2 81 36.8 74.4 48.6H74C69.6 36.6 59.6 30.2 47 30.2C34 30.2 23 37.4 16.6 47.4H16.2V32.6H6.85453e-07V136ZM202.989 138.8C233.989 138.8 252.789 114.4 252.789 84.4C252.789 54.4 233.989 30 202.989 30C172.189 30 152.989 54.4 152.989 84.4C152.989 114.4 172.189 138.8 202.989 138.8ZM202.989 125.2C180.989 125.2 169.589 107.2 169.589 84.4C169.589 61.6 180.989 43.4 202.989 43.4C224.989 43.4 236.189 61.6 236.189 84.4C236.189 107.2 224.989 125.2 202.989 125.2ZM268.945 136H285.145V71.6C285.145 55.4 299.145 43.8 311.745 43.8C322.345 43.8 329.545 51.4 329.545 64.2V136H345.745V71.6C345.745 55.4 357.745 43.8 371.145 43.8C381.545 43.8 390.145 51.4 390.145 64.2V136H406.345V63.4C406.345 42 393.345 30.2 374.945 30.2C362.345 30.2 349.945 36.8 343.345 48.6H342.945C338.545 36.6 328.545 30.2 315.945 30.2C302.945 30.2 291.945 37.4 285.545 47.4H285.145V32.6H268.945V136ZM471.934 138.8C495.334 138.8 511.534 126.2 516.334 104H500.534C496.934 118 486.934 125.2 471.934 125.2C451.134 125.2 439.734 109.2 438.534 88.2H518.534C518.534 54 501.934 30 470.934 30C441.534 30 421.934 54.4 421.934 84.4C421.934 114.4 440.334 138.8 471.934 138.8ZM470.934 42.8C489.534 42.8 500.134 55.4 501.134 76H438.934C441.334 57.2 451.734 42.8 470.934 42.8ZM550.575 32.6H534.375V136H550.575V72.4C550.575 55.4 562.575 43.8 578.975 43.8C593.575 43.8 602.375 51.4 602.375 64.8V136H618.575V63.4C618.575 42 605.375 30.2 583.775 30.2C568.775 30.2 558.375 36.4 550.975 46.2H550.575V32.6ZM631.486 45.8H646.486V116.6C646.486 131.2 656.086 136.6 669.286 136.6C674.086 136.6 678.486 136 682.286 135.2V121.2H681.686C679.886 121.8 676.286 122.6 673.086 122.6C666.486 122.6 662.686 120.2 662.686 113V45.8H682.686V32.6H662.686V-1.43051e-06H646.486V32.6H631.486V45.8ZM781.414 136V32.6H765.214V96.2C765.214 112.6 754.614 125 738.214 125C723.614 125 715.014 117.2 715.014 103.8V32.6H698.814V104.2C698.814 125.6 712.414 138.4 733.614 138.4C748.614 138.4 757.414 131.8 764.814 121.8H765.214V136H781.414ZM803.32 136H819.52V71.6C819.52 55.4 833.52 43.8 846.12 43.8C856.72 43.8 863.92 51.4 863.92 64.2V136H880.12V71.6C880.12 55.4 892.12 43.8 905.52 43.8C915.92 43.8 924.52 51.4 924.52 64.2V136H940.72V63.4C940.72 42 927.72 30.2 909.32 30.2C896.72 30.2 884.32 36.8 877.72 48.6H877.32C872.92 36.6 862.92 30.2 850.32 30.2C837.32 30.2 826.32 37.4 819.92 47.4H819.52V32.6H803.32V136Z" fill="black"/>
</svg>
