<svg width="1092" height="150" viewBox="0 0 1092 150" fill="none" xmlns="http://www.w3.org/2000/svg">
<path d="M0.4 147H51C94 147 115.8 118.8 115.8 76C115.8 33.2 95.4 3.99999 52.4 3.99999H0.4V147ZM18.4 131.2V19.6H51.8C85.4 19.6 97.4 42.4 97.4 76C97.4 109.6 84 131.2 50.4 131.2H18.4ZM118.688 147H137.088L152.488 103.4H209.488L224.688 147H244.288L191.488 3.99999H171.288L118.688 147ZM174.688 40.8C177.488 32.6 181.288 20.6 181.288 20.6H181.688C181.688 20.6 185.288 32.8 188.088 40.8L204.488 88.8H157.688L174.688 40.8ZM285.136 147H303.136V86.8L355.536 3.99999H336.336L294.736 72H294.336L253.336 3.99999H233.336L285.136 86.4V147ZM454.744 149.8C485.544 149.8 507.344 134.8 507.344 108C507.344 75.8 481.944 69 454.144 63.4C432.744 59.2 416.744 54.4 416.744 38.2C416.744 23.4 429.544 15.2 448.944 15.2C469.944 15.2 483.144 25.4 485.744 45.8H502.744C499.144 19.4 484.344 1.19999 448.544 1.19999C419.544 1.19999 399.944 15.4 399.944 39C399.944 66 421.544 73.2 446.744 78.8C472.344 84.4 489.544 89 489.544 108.6C489.544 126.4 475.344 135.4 455.544 135.4C428.544 135.4 413.744 122.8 411.344 98.6H393.744C395.344 127.4 414.544 149.8 454.744 149.8ZM511.908 19.8H559.508V147H577.508V19.8H625.108V3.99999H511.908V19.8ZM695.378 149.2C725.978 149.2 750.178 135.4 750.178 100.8V3.99999H732.178V99C732.178 123.4 718.578 133.8 695.978 133.8C672.378 133.8 658.578 123.4 658.578 99V3.99999H640.578V100.8C640.578 135.4 664.178 149.2 695.378 149.2ZM774.619 147H825.219C868.219 147 890.019 118.8 890.019 76C890.019 33.2 869.619 3.99999 826.619 3.99999H774.619V147ZM792.619 131.2V19.6H826.019C859.619 19.6 871.619 42.4 871.619 76C871.619 109.6 858.219 131.2 824.619 131.2H792.619ZM911.738 147H929.738V3.99999H911.738V147ZM1021.45 150C1064.65 150 1091.45 118.2 1091.45 75.4C1091.45 32.6 1064.65 0.799999 1021.45 0.799999C978.245 0.799999 951.445 32.6 951.445 75.4C951.445 118.2 978.245 150 1021.45 150ZM1021.45 134.2C987.845 134.2 969.845 109 969.845 75.4C969.845 41.8 987.845 16.4 1021.45 16.4C1055.05 16.4 1073.05 41.8 1073.05 75.4C1073.05 109 1055.05 134.2 1021.45 134.2Z" fill="black"/>
</svg>
