<svg width="1879" height="150" viewBox="0 0 1879 150" fill="none" xmlns="http://www.w3.org/2000/svg">
<path d="M62.4 149.2C94.6 149.2 118 133 118 104C118 73.2 94 66.2 64.6 59.8C43.4 55.2 33.4 51.8 33.4 40.2C33.4 30 43.6 23.4 59.2 23.4C74 23.4 85.2 30.6 86.8 45H114.6C112.4 16.2 91.6 0.399991 59.4 0.399991C27.6 0.399991 4.6 15 4.6 43.2C4.6 73 28 79.8 53.6 85.6C75.4 90.6 89 93.4 89 107.4C89 120.6 76 125.8 61.2 125.8C40.8 125.8 31 119 29 101.8H0.6C1.6 132 23.6 149.2 62.4 149.2ZM121.866 27.4H164.866V146H193.866V27.4H236.866V2.99999H121.866V27.4ZM306.731 148.4C343.331 148.4 362.131 130.6 362.131 100V2.99999H333.131V99.6C333.131 114.4 324.531 125.2 306.131 125.2C286.731 125.2 279.331 114.8 279.331 100V2.99999H250.331V100C250.331 131 269.731 148.4 306.731 148.4ZM382.977 146H436.377C454.377 146 468.177 141 478.777 132.2C493.777 119.6 501.577 99.2 501.577 76C501.577 33.8 476.977 2.99999 438.777 2.99999H382.977V146ZM411.977 121V27.8H435.177C459.777 27.8 472.177 47.6 472.177 76C472.177 104.4 461.577 121 434.377 121H411.977ZM517.552 146H546.552V2.99999H517.552V146ZM631.519 149.2C673.719 149.2 700.319 117.6 700.319 74.8C700.319 32 673.719 0.199994 631.519 0.199994C589.319 0.199994 562.519 32 562.519 74.8C562.519 117.6 589.319 149.2 631.519 149.2ZM631.719 125.4C605.519 125.4 592.119 103.2 592.119 74.8C592.119 46.2 605.519 24 631.719 24C657.919 24 670.719 46.2 670.719 74.8C670.719 103.2 657.919 125.4 631.719 125.4ZM749.773 146H776.373V64C776.373 52.4 775.173 34.4 775.173 34.4H775.573C775.573 34.4 778.773 51.2 781.773 61.6L805.773 146H833.573L858.173 61.6C861.173 51.2 864.373 34.4 864.373 34.4H864.773C864.773 34.4 863.573 52.4 863.573 64V146H890.573V2.99999H849.173L828.973 74.8C823.973 92.8 820.173 113.4 820.173 113.4H819.773C819.773 113.4 815.773 92.8 810.773 74.8L790.573 2.99999H749.773V146ZM975.464 149.2C1017.66 149.2 1044.26 117.6 1044.26 74.8C1044.26 32 1017.66 0.199994 975.464 0.199994C933.264 0.199994 906.464 32 906.464 74.8C906.464 117.6 933.264 149.2 975.464 149.2ZM975.664 125.4C949.464 125.4 936.064 103.2 936.064 74.8C936.064 46.2 949.464 24 975.664 24C1001.86 24 1014.66 46.2 1014.66 74.8C1014.66 103.2 1001.86 125.4 975.664 125.4ZM1060.13 146H1086.73V64C1086.73 52.4 1085.53 34.4 1085.53 34.4H1085.93C1085.93 34.4 1089.13 51.2 1092.13 61.6L1116.13 146H1143.93L1168.53 61.6C1171.53 51.2 1174.73 34.4 1174.73 34.4H1175.13C1175.13 34.4 1173.93 52.4 1173.93 64V146H1200.93V2.99999H1159.53L1139.33 74.8C1134.33 92.8 1130.53 113.4 1130.53 113.4H1130.13C1130.13 113.4 1126.13 92.8 1121.13 74.8L1100.93 2.99999H1060.13V146ZM1223.02 146H1328.82V121.8H1252.02V83.2H1318.82V59.4H1252.02V27.4H1328.22V2.99999H1223.02V146ZM1346.84 146H1375.44V72.2C1375.44 62.2 1374.64 47.2 1374.64 47.2H1375.04C1375.04 47.2 1380.64 59.4 1385.24 67L1434.04 146H1462.04V2.99999H1433.44V78C1433.44 88 1434.24 102.8 1434.24 102.8H1433.84C1433.84 102.8 1428.44 90.6 1423.84 82.8L1376.24 2.99999H1346.84V146ZM1476.55 27.4H1519.55V146H1548.55V27.4H1591.55V2.99999H1476.55V27.4ZM1661.42 148.4C1698.02 148.4 1716.82 130.6 1716.82 100V2.99999H1687.82V99.6C1687.82 114.4 1679.22 125.2 1660.82 125.2C1641.42 125.2 1634.02 114.8 1634.02 100V2.99999H1605.02V100C1605.02 131 1624.42 148.4 1661.42 148.4ZM1737.66 146H1764.26V64C1764.26 52.4 1763.06 34.4 1763.06 34.4H1763.46C1763.46 34.4 1766.66 51.2 1769.66 61.6L1793.66 146H1821.46L1846.06 61.6C1849.06 51.2 1852.26 34.4 1852.26 34.4H1852.66C1852.66 34.4 1851.46 52.4 1851.46 64V146H1878.46V2.99999H1837.06L1816.86 74.8C1811.86 92.8 1808.06 113.4 1808.06 113.4H1807.66C1807.66 113.4 1803.66 92.8 1798.66 74.8L1778.46 2.99999H1737.66V146Z" fill="black"/>
</svg>
