<svg width="1896" height="150" viewBox="0 0 1896 150" fill="none" xmlns="http://www.w3.org/2000/svg">
<path d="M61.4 149.8C92.2 149.8 114 134.8 114 108C114 75.8 88.6 69 60.8 63.4C39.4 59.2 23.4 54.4 23.4 38.2C23.4 23.4 36.2 15.2 55.6 15.2C76.6 15.2 89.8 25.4 92.4 45.8H109.4C105.8 19.4 91 1.19999 55.2 1.19999C26.2 1.19999 6.6 15.4 6.6 39C6.6 66 28.2 73.2 53.4 78.8C79 84.4 96.2 89 96.2 108.6C96.2 126.4 82 135.4 62.2 135.4C35.2 135.4 20.4 122.8 18 98.6H0.4C2 127.4 21.2 149.8 61.4 149.8ZM118.564 19.8H166.164V147H184.164V19.8H231.764V3.99999H118.564V19.8ZM302.034 149.2C332.634 149.2 356.834 135.4 356.834 100.8V3.99999H338.834V99C338.834 123.4 325.234 133.8 302.634 133.8C279.034 133.8 265.234 123.4 265.234 99V3.99999H247.234V100.8C247.234 135.4 270.834 149.2 302.034 149.2ZM381.275 147H431.875C474.875 147 496.675 118.8 496.675 76C496.675 33.2 476.275 3.99999 433.275 3.99999H381.275V147ZM399.275 131.2V19.6H432.675C466.275 19.6 478.275 42.4 478.275 76C478.275 109.6 464.875 131.2 431.275 131.2H399.275ZM518.394 147H536.394V3.99999H518.394V147ZM628.102 150C671.302 150 698.102 118.2 698.102 75.4C698.102 32.6 671.302 0.799999 628.102 0.799999C584.902 0.799999 558.102 32.6 558.102 75.4C558.102 118.2 584.902 150 628.102 150ZM628.102 134.2C594.502 134.2 576.502 109 576.502 75.4C576.502 41.8 594.502 16.4 628.102 16.4C661.702 16.4 679.702 41.8 679.702 75.4C679.702 109 661.702 134.2 628.102 134.2ZM751.392 147H767.592V29.4H767.992C767.992 29.4 771.592 40.2 774.392 47.4L813.592 147H827.392L866.592 47.4C869.192 40.6 872.992 29.4 872.992 29.4H873.392V147H890.592V3.99999H867.192L821.192 122.8H820.792L774.392 3.99999H751.392V147ZM982.008 150C1025.21 150 1052.01 118.2 1052.01 75.4C1052.01 32.6 1025.21 0.799999 982.008 0.799999C938.808 0.799999 912.008 32.6 912.008 75.4C912.008 118.2 938.808 150 982.008 150ZM982.008 134.2C948.408 134.2 930.408 109 930.408 75.4C930.408 41.8 948.408 16.4 982.008 16.4C1015.61 16.4 1033.61 41.8 1033.61 75.4C1033.61 109 1015.61 134.2 982.008 134.2ZM1073.46 147H1089.66V29.4H1090.06C1090.06 29.4 1093.66 40.2 1096.46 47.4L1135.66 147H1149.46L1188.66 47.4C1191.26 40.6 1195.06 29.4 1195.06 29.4H1195.46V147H1212.66V3.99999H1189.26L1143.26 122.8H1142.86L1096.46 3.99999H1073.46V147ZM1239.48 147H1342.88V130.4H1257.48V80.2H1332.88V65H1257.48V19.8H1340.48V3.99999H1239.48V147ZM1363.89 147H1380.69V29.6H1381.09C1381.09 29.6 1387.09 40.4 1391.69 47.4L1457.29 147H1475.69V3.99999H1458.89V121.8H1458.49C1458.49 121.8 1452.89 110.8 1448.09 103.4L1382.89 3.99999H1363.89V147ZM1493.56 19.8H1541.16V147H1559.16V19.8H1606.76V3.99999H1493.56V19.8ZM1677.03 149.2C1707.63 149.2 1731.83 135.4 1731.83 100.8V3.99999H1713.83V99C1713.83 123.4 1700.23 133.8 1677.63 133.8C1654.03 133.8 1640.23 123.4 1640.23 99V3.99999H1622.23V100.8C1622.23 135.4 1645.83 149.2 1677.03 149.2ZM1756.28 147H1772.48V29.4H1772.88C1772.88 29.4 1776.48 40.2 1779.28 47.4L1818.48 147H1832.28L1871.48 47.4C1874.08 40.6 1877.88 29.4 1877.88 29.4H1878.28V147H1895.48V3.99999H1872.08L1826.08 122.8H1825.68L1779.28 3.99999H1756.28V147Z" fill="black"/>
</svg>
