<svg width="1075" height="150" viewBox="0 0 1075 150" fill="none" xmlns="http://www.w3.org/2000/svg">
<path d="M0.4 147H16.6V29.4H17C17 29.4 20.6 40.2 23.4 47.4L62.6 147H76.4L115.6 47.4C118.2 40.6 122 29.4 122 29.4H122.4V147H139.6V3.99999H116.2L70.2 122.8H69.8L23.4 3.99999H0.4V147ZM221.016 150C264.216 150 291.016 118.2 291.016 75.4C291.016 32.6 264.216 0.799999 221.016 0.799999C177.816 0.799999 151.016 32.6 151.016 75.4C151.016 118.2 177.816 150 221.016 150ZM221.016 134.2C187.416 134.2 169.416 109 169.416 75.4C169.416 41.8 187.416 16.4 221.016 16.4C254.616 16.4 272.616 41.8 272.616 75.4C272.616 109 254.616 134.2 221.016 134.2ZM302.47 147H318.67V29.4H319.07C319.07 29.4 322.67 40.2 325.47 47.4L364.67 147H378.47L417.67 47.4C420.27 40.6 424.07 29.4 424.07 29.4H424.47V147H441.67V3.99999H418.27L372.27 122.8H371.87L325.47 3.99999H302.47V147ZM458.486 147H561.886V130.4H476.486V80.2H551.886V65H476.486V19.8H559.486V3.99999H458.486V147ZM572.9 147H589.7V29.6H590.1C590.1 29.6 596.1 40.4 600.7 47.4L666.3 147H684.7V3.99999H667.9V121.8H667.5C667.5 121.8 661.9 110.8 657.1 103.4L591.9 3.99999H572.9V147ZM692.572 19.8H740.172V147H758.172V19.8H805.772V3.99999H692.572V19.8ZM866.042 149.2C896.642 149.2 920.842 135.4 920.842 100.8V3.99999H902.842V99C902.842 123.4 889.242 133.8 866.642 133.8C843.042 133.8 829.242 123.4 829.242 99V3.99999H811.242V100.8C811.242 135.4 834.842 149.2 866.042 149.2ZM935.283 147H951.483V29.4H951.883C951.883 29.4 955.483 40.2 958.283 47.4L997.483 147H1011.28L1050.48 47.4C1053.08 40.6 1056.88 29.4 1056.88 29.4H1057.28V147H1074.48V3.99999H1051.08L1005.08 122.8H1004.68L958.283 3.99999H935.283V147Z" fill="black"/>
</svg>
