<svg xmlns="http://www.w3.org/2000/svg" viewBox="0 0 416.2 95.31"><g id="Layer_2" data-name="Layer 2"><g id="Layer_1-2" data-name="Layer 1"><path d="M0,70.3H8.6V7.2H0V5.7H29.9c24.2,0,34.3,12.6,34.3,32,0,18.9-9.4,34.1-34.3,34.1H0Zm30.1,0c14.2,0,21-10.9,21-31.5,0-21.5-6.8-31.6-21-31.6H20.8V70.3Z"/><path d="M98.8,64.3a15.3,15.3,0,0,1-13.9,8.2c-6.5,0-13.6-2.9-13.6-11.2C71.3,50.5,85,47,97.1,47h1V36.5c0-5.8-1.7-9.1-7.8-9.1-5.8,0-8.5,2.5-8.5,7.6,0,3.3,1.3,6.1,4.7,5.5v.8a17.15,17.15,0,0,1-4.6.7c-4.7,0-8.2-2.3-8.2-6.5,0-5.6,5.8-9.4,16.8-9.4,13.6,0,18.8,5,18.8,13.7V65.7c0,2.8.6,4.3,2.6,4.3,3.1,0,4.4-3.6,4.4-6.9h1.5c0,6.4-3.7,9.4-9,9.4-5.6,0-9.4-3-9.8-8.2Zm-.7-15.8H96.8c-4.6,0-7.5,1-9.6,2.4-2.9,2-4.2,5.5-4.2,10.4,0,6.2,1.9,8.8,5.3,8.8a9.57,9.57,0,0,0,5.1-1.8c2.5-1.8,4.7-4.8,4.7-7Z"/><path d="M128.5,82.1c-2,.31-3.1,2.31-3.1,5.51s1.1,6.2,4.9,6.2A8.7,8.7,0,0,0,137.7,90c1.5-2.09,2.7-5.79,3.2-9.2l1.1-7.6L120.7,28.3h-5.1V26.8h24.2v1.5h-6.9L147,58.4l9.2-24.2c1.5-4,.2-5.9-4.1-5.9h-2V26.8H166v1.5h-1.5a6.8,6.8,0,0,0-6.2,4.6L143.9,70.8l-1.4,9.41c-1.1,7.4-3.3,15.1-12.9,15.1-5.4,0-11.5-2-11.5-7.51,0-3.59,2.9-6.5,10.4-6.5Z"/><path d="M176.4,59.2c-1.8.2-3,1.8-3,4.5,0,4.8,3.7,7.3,9.9,7.3,7.2,0,12.6-3.4,12.6-8.6,0-5.9-6.8-8.2-12.2-10.6-6.2-2.7-11.8-6-11.8-13.2s6-12.5,15.8-12.5c8.5,0,15.4,3.7,15.4,8.6,0,3.6-3.8,6.8-9.6,5.9l.2-.8c2.1,0,3.5-2.1,3.5-5.2,0-4.7-3.2-7-9.3-7-7,0-11.7,3.1-11.7,7.9,0,4.6,4.5,6.6,10.9,9.4,6.6,2.8,13,5.8,13,14s-6.4,13.6-17.4,13.6c-8.8,0-15.7-3.4-15.7-8.6,0-4,4-6.2,9.6-5.5Z"/><path d="M233.5,57.5c-1,7.1-5.8,15-13.6,15-3.8,0-7-1.8-7-6.6,0-4.2,2.2-15.6,5.2-37.6h-6.8l.3-1.5c8.6-.5,10.7-3.9,14.5-15.5h1.5s-1.7,9.6-2.3,15.5h12.4l-.3,1.5H225.1c-3,20.7-5.2,35.1-5.2,38.4,0,2.4,1.1,3.4,2.7,3.4,4.2,0,8.7-6.5,9.4-12.9Z"/><path d="M241.5,26.8h14c-.3,8.2-5.4,28.9-5.4,38.4,0,4.2,1.1,5.6,4.1,5.6,3.2,0,6.1-1.8,8.5-4.3,4.6-4.8,7.2-11.2,9.7-18.1s3.4-14.4,4.7-21.6h7c-2.6,18.1-5.8,35-5.8,39.9,0,2,.6,3.3,1.9,3.3,3.7,0,8.1-6.7,8.9-13.1l1.5.3c-1.1,7.5-6,15-12.7,15-3.2,0-6.3-1.8-6.3-7.1,0-4,2-10.7,2.6-16.2h-.4c-1.9,5.3-4.3,11.4-8,16.3-3.3,4.3-7.4,7.3-12.5,7.3-5.4,0-10.3-2.3-10.3-9.1,0-6.3,4.6-25.2,5.2-35.1h-6.9Z"/><path d="M324.6,59.1c-3.3,6.1-8.5,13.4-16.9,13.4-7.4,0-12.2-6.2-12.2-16.2,0-14.9,10.8-30.2,24-30.2,5.9,0,8.3,3.5,9.3,7.1,1.5-12.7,4.1-26.2,4.1-31.7H326l.1-1.5h14.2c0,12.5-8.9,55.7-8.9,66.1,0,3.1.4,3.9,1.7,3.9,3.9,0,8.1-6.5,8.9-13.1l1.5.3c-.9,6.9-5.4,15-12.4,15-3.6,0-6.6-1.5-6.6-7.4a44,44,0,0,1,.5-5.7Zm-2.5,1.4a44.34,44.34,0,0,0,6-21.3c0-7.3-2.8-11.7-8.5-11.7-13.1,0-16.5,22.5-16.5,33.3,0,6.6,1.3,10.1,5.4,10.1C313.6,70.9,318.3,66.8,322.1,60.5Z"/><path d="M370,57.2c-1,6.9-5.6,15-12.7,15-3.1,0-6.3-1.9-6.3-6.6,0-5.8,5.1-30.5,5.1-37.3h-6.9l.1-1.5h14c0,7.1-5.6,35-5.6,40.5,0,2.1.8,2.7,1.9,2.7,3.8,0,8.2-7,8.9-13.1ZM362,5a5,5,0,0,1,4.9,4.9,5,5,0,0,1-4.9,4.9A4.9,4.9,0,1,1,362,5Z"/><path d="M375.49,54.3a34.39,34.39,0,0,1,.4-5.4c1.9-14,8.9-22.8,22.11-22.8,12.8,0,18.2,6.6,18.2,17.8,0,18.1-9.7,28.6-22.8,28.6C381.29,72.5,375.49,65.2,375.49,54.3Zm32.71-4.9a80.23,80.23,0,0,0,.7-9.1c0-8.6-2.8-12.9-10-12.9-9.11,0-13.31,6.2-15.4,21.8a75,75,0,0,0-.71,8.9c0,8.6,2.8,13.1,10,13.1C402.1,71.2,406.2,64.6,408.2,49.4Z"/></g></g></svg>